<?xml version="1.0" encoding="UTF-8"?>
<svg id="Layer_1" xmlns="http://www.w3.org/2000/svg" version="1.1" viewBox="0 0 841.89 123.45">
  <!-- Generator: Adobe Illustrator 30.0.0, SVG Export Plug-In . SVG Version: 2.1.1 Build 123)  -->
  <defs>
    <style>
      .st0 {
        fill: #001d44;
      }

      .st1 {
        fill: #00388e;
      }
    </style>
  </defs>
  <g>
    <path d="M381.38,38.34c.87-1.49,2.05-2.65,3.55-3.48,1.5-.83,3.13-1.25,4.91-1.25,2.04,0,3.85.5,5.44,1.5,1.59,1,2.74,2.42,3.45,4.25h-3.77c-.5-1.01-1.18-1.76-2.06-2.26-.88-.5-1.9-.74-3.06-.74-1.27,0-2.39.28-3.39.85s-1.77,1.39-2.33,2.45c-.56,1.06-.84,2.3-.84,3.72s.28,2.65.84,3.72c.56,1.06,1.33,1.89,2.33,2.46.99.58,2.12.87,3.39.87,1.16,0,2.17-.25,3.06-.74.88-.5,1.57-1.25,2.06-2.26h3.77c-.72,1.84-1.87,3.25-3.45,4.24-1.59.99-3.4,1.49-5.44,1.49-1.8,0-3.44-.42-4.93-1.25-1.49-.83-2.67-2-3.54-3.48-.87-1.49-1.31-3.17-1.31-5.04s.44-3.55,1.31-5.04Z"/>
    <path d="M415.83,33.85v12.19c0,1.45.38,2.54,1.14,3.28.76.73,1.82,1.1,3.18,1.1s2.45-.37,3.21-1.1c.76-.73,1.14-1.83,1.14-3.28v-12.19h3.14v12.14c0,1.56-.34,2.88-1.02,3.96-.68,1.08-1.59,1.89-2.73,2.42-1.14.53-2.39.8-3.77.8s-2.63-.27-3.76-.8c-1.13-.53-2.02-1.34-2.68-2.42-.66-1.08-.99-2.4-.99-3.96v-12.14h3.14Z"/>
    <path d="M444.87,52.5c-1.03-.45-1.84-1.09-2.42-1.91-.59-.83-.88-1.79-.88-2.89h3.36c.07.83.4,1.51.98,2.04.58.53,1.39.8,2.44.8s1.93-.26,2.53-.78c.61-.52.91-1.2.91-2.02,0-.64-.19-1.17-.56-1.57-.38-.4-.84-.72-1.4-.94-.56-.22-1.33-.46-2.33-.72-1.25-.33-2.26-.66-3.04-1-.78-.34-1.44-.87-2-1.58-.55-.72-.83-1.67-.83-2.86,0-1.1.28-2.06.83-2.89.55-.83,1.32-1.46,2.31-1.9s2.14-.66,3.44-.66c1.85,0,3.37.46,4.56,1.39,1.18.93,1.84,2.2,1.97,3.81h-3.47c-.06-.7-.39-1.29-.99-1.79s-1.4-.74-2.39-.74c-.9,0-1.63.23-2.2.69-.57.46-.85,1.12-.85,1.98,0,.59.18,1.07.54,1.45.36.38.81.67,1.36.89.55.22,1.3.46,2.26.72,1.27.35,2.3.7,3.1,1.05.8.35,1.48.89,2.04,1.61s.84,1.69.84,2.9c0,.97-.26,1.89-.78,2.75s-1.28,1.55-2.28,2.08c-1,.52-2.18.78-3.54.78-1.28,0-2.44-.22-3.47-.67Z"/>
    <path d="M481.34,33.85v2.56h-5.09v16.57h-3.14v-16.57h-5.12v-2.56h13.35Z"/>
    <path d="M498.64,51.92c-1.5-.83-2.68-2-3.55-3.5-.87-1.5-1.31-3.18-1.31-5.05s.44-3.55,1.31-5.04c.87-1.49,2.05-2.65,3.55-3.48,1.5-.83,3.13-1.25,4.91-1.25s3.45.42,4.94,1.25c1.5.83,2.67,2,3.54,3.48.86,1.49,1.29,3.17,1.29,5.04s-.43,3.56-1.29,5.05c-.86,1.5-2.04,2.66-3.54,3.5-1.5.84-3.14,1.25-4.94,1.25s-3.42-.42-4.91-1.25ZM506.94,49.58c.99-.58,1.77-1.4,2.33-2.48.56-1.07.84-2.32.84-3.73s-.28-2.65-.84-3.72c-.56-1.06-1.33-1.88-2.33-2.45s-2.12-.85-3.39-.85-2.39.28-3.39.85-1.77,1.39-2.33,2.45c-.56,1.06-.84,2.3-.84,3.72s.28,2.66.84,3.73c.56,1.07,1.33,1.9,2.33,2.48s2.12.87,3.39.87,2.4-.29,3.39-.87Z"/>
    <path d="M546.88,33.85v19.13h-3.14v-13.1l-5.84,13.1h-2.17l-5.86-13.1v13.1h-3.14v-19.13h3.39l6.72,15,6.69-15h3.36Z"/>
    <path d="M594.09,33.85v19.13h-3.14v-8.37h-9v8.37h-3.14v-19.13h3.14v8.2h9v-8.2h3.14Z"/>
    <path d="M612.35,51.92c-1.5-.83-2.68-2-3.55-3.5-.87-1.5-1.31-3.18-1.31-5.05s.44-3.55,1.31-5.04c.87-1.49,2.05-2.65,3.55-3.48,1.5-.83,3.13-1.25,4.91-1.25s3.45.42,4.94,1.25c1.5.83,2.67,2,3.54,3.48.86,1.49,1.29,3.17,1.29,5.04s-.43,3.56-1.29,5.05c-.86,1.5-2.04,2.66-3.54,3.5-1.5.84-3.14,1.25-4.94,1.25s-3.42-.42-4.91-1.25ZM620.65,49.58c.99-.58,1.77-1.4,2.33-2.48.56-1.07.84-2.32.84-3.73s-.28-2.65-.84-3.72c-.56-1.06-1.33-1.88-2.33-2.45s-2.12-.85-3.39-.85-2.39.28-3.39.85-1.77,1.39-2.33,2.45c-.56,1.06-.84,2.3-.84,3.72s.28,2.66.84,3.73c.56,1.07,1.33,1.9,2.33,2.48s2.12.87,3.39.87,2.4-.29,3.39-.87Z"/>
    <path d="M660.59,33.85v19.13h-3.14v-13.1l-5.84,13.1h-2.17l-5.86-13.1v13.1h-3.14v-19.13h3.39l6.72,15,6.69-15h3.36Z"/>
    <path d="M678.18,36.38v5.62h6.61v2.56h-6.61v5.86h7.43v2.56h-10.57v-19.16h10.57v2.56h-7.43Z"/>
    <path d="M702.62,52.5c-1.03-.45-1.84-1.09-2.42-1.91-.59-.83-.88-1.79-.88-2.89h3.36c.07.83.4,1.51.98,2.04.58.53,1.39.8,2.44.8s1.93-.26,2.53-.78c.61-.52.91-1.2.91-2.02,0-.64-.19-1.17-.56-1.57-.38-.4-.84-.72-1.4-.94-.56-.22-1.33-.46-2.33-.72-1.25-.33-2.26-.66-3.04-1-.78-.34-1.44-.87-2-1.58-.55-.72-.83-1.67-.83-2.86,0-1.1.28-2.06.83-2.89.55-.83,1.32-1.46,2.31-1.9s2.14-.66,3.44-.66c1.85,0,3.37.46,4.56,1.39s1.84,2.2,1.97,3.81h-3.47c-.06-.7-.39-1.29-.99-1.79s-1.4-.74-2.39-.74c-.9,0-1.63.23-2.2.69-.57.46-.85,1.12-.85,1.98,0,.59.18,1.07.54,1.45.36.38.81.67,1.36.89.55.22,1.3.46,2.26.72,1.27.35,2.3.7,3.1,1.05.8.35,1.48.89,2.04,1.61s.84,1.69.84,2.9c0,.97-.26,1.89-.78,2.75-.52.86-1.28,1.55-2.28,2.08-1,.52-2.18.78-3.54.78-1.28,0-2.44-.22-3.47-.67Z"/>
    <path d="M381.38,79.02c.87-1.49,2.05-2.65,3.55-3.48,1.5-.83,3.13-1.25,4.91-1.25,2.04,0,3.85.5,5.44,1.5,1.59,1,2.74,2.42,3.45,4.25h-3.77c-.5-1.01-1.18-1.76-2.06-2.26-.88-.5-1.9-.74-3.06-.74-1.27,0-2.39.28-3.39.85-.99.57-1.77,1.39-2.33,2.45-.56,1.06-.84,2.3-.84,3.72s.28,2.65.84,3.72c.56,1.06,1.33,1.89,2.33,2.46.99.58,2.12.87,3.39.87,1.16,0,2.17-.25,3.06-.74.88-.5,1.57-1.25,2.06-2.26h3.77c-.72,1.84-1.87,3.25-3.45,4.24-1.59.99-3.4,1.49-5.44,1.49-1.8,0-3.44-.42-4.93-1.25-1.49-.83-2.67-2-3.54-3.48-.87-1.49-1.31-3.17-1.31-5.04s.44-3.55,1.31-5.04Z"/>
    <path d="M422.66,93.67l-4.4-7.65h-2.39v7.65h-3.14v-19.13h6.61c1.47,0,2.71.26,3.73.77,1.02.51,1.78,1.2,2.28,2.06.5.86.76,1.83.76,2.89,0,1.25-.36,2.38-1.09,3.4-.73,1.02-1.84,1.71-3.34,2.08l4.73,7.93h-3.74ZM415.86,83.51h3.47c1.17,0,2.06-.29,2.66-.88.6-.59.89-1.38.89-2.37s-.29-1.77-.88-2.33c-.59-.56-1.48-.84-2.67-.84h-3.47v6.41Z"/>
    <path d="M451.97,89.76h-8.01l-1.38,3.91h-3.28l6.85-19.16h3.63l6.85,19.16h-3.3l-1.38-3.91ZM451.09,87.2l-3.11-8.89-3.14,8.89h6.25Z"/>
    <path d="M481.2,74.54v2.56h-8.12v5.64h6.33v2.56h-6.33v8.37h-3.14v-19.13h11.26Z"/>
    <path d="M506.8,74.54v2.56h-5.09v16.57h-3.14v-16.57h-5.12v-2.56h13.35Z"/>
    <path d="M523.43,77.07v5.62h6.61v2.56h-6.61v5.86h7.43v2.56h-10.57v-19.16h10.57v2.56h-7.43Z"/>
    <path d="M556.64,75.71c1.53.78,2.72,1.9,3.55,3.36.83,1.46,1.25,3.16,1.25,5.11s-.42,3.63-1.25,5.06c-.84,1.43-2.02,2.53-3.55,3.29-1.53.76-3.32,1.14-5.35,1.14h-6.25v-19.13h6.25c2.04,0,3.82.39,5.35,1.17ZM556.43,89.29c1.19-1.21,1.79-2.92,1.79-5.12s-.6-3.95-1.79-5.2c-1.19-1.25-2.91-1.87-5.15-1.87h-3.11v14.01h3.11c2.24,0,3.95-.61,5.15-1.82Z"/>
    <path d="M617.27,74.54l-5.67,19.13h-3.55l-4.02-14.48-4.27,14.48-3.52.03-5.42-19.16h3.33l3.96,15.58,4.29-15.58h3.52l3.99,15.5,3.99-15.5h3.36Z"/>
    <path d="M633.31,74.54v19.13h-3.14v-19.13h3.14Z"/>
    <path d="M660.12,74.54v2.56h-5.09v16.57h-3.14v-16.57h-5.12v-2.56h13.35Z"/>
    <path d="M688.89,74.54v19.13h-3.14v-8.37h-9v8.37h-3.14v-19.13h3.14v8.2h9v-8.2h3.14Z"/>
    <path d="M721.08,79.02c.87-1.49,2.05-2.65,3.55-3.48,1.5-.83,3.13-1.25,4.91-1.25,2.04,0,3.85.5,5.44,1.5,1.59,1,2.74,2.42,3.45,4.25h-3.77c-.5-1.01-1.18-1.76-2.06-2.26-.88-.5-1.9-.74-3.06-.74-1.27,0-2.39.28-3.39.85-.99.57-1.77,1.39-2.33,2.45-.56,1.06-.84,2.3-.84,3.72s.28,2.65.84,3.72c.56,1.06,1.33,1.89,2.33,2.46.99.58,2.12.87,3.39.87,1.16,0,2.17-.25,3.06-.74.88-.5,1.57-1.25,2.06-2.26h3.77c-.72,1.84-1.87,3.25-3.45,4.24-1.59.99-3.4,1.49-5.44,1.49-1.8,0-3.44-.42-4.93-1.25-1.49-.83-2.67-2-3.54-3.48-.87-1.49-1.31-3.17-1.31-5.04s.44-3.55,1.31-5.04Z"/>
    <path d="M763.95,89.76h-8.01l-1.38,3.91h-3.28l6.85-19.16h3.63l6.85,19.16h-3.3l-1.38-3.91ZM763.07,87.2l-3.11-8.89-3.14,8.89h6.25Z"/>
    <path d="M791.86,93.67l-4.4-7.65h-2.39v7.65h-3.14v-19.13h6.61c1.47,0,2.71.26,3.73.77,1.02.51,1.78,1.2,2.28,2.06.5.86.76,1.83.76,2.89,0,1.25-.36,2.38-1.09,3.4-.73,1.02-1.84,1.71-3.34,2.08l4.73,7.93h-3.74ZM785.06,83.51h3.47c1.17,0,2.06-.29,2.66-.88.6-.59.89-1.38.89-2.37s-.29-1.77-.88-2.33c-.59-.56-1.48-.84-2.67-.84h-3.47v6.41Z"/>
    <path d="M812.78,77.07v5.62h6.61v2.56h-6.61v5.86h7.43v2.56h-10.57v-19.16h10.57v2.56h-7.43Z"/>
  </g>
  <polygon class="st0" points="18.39 108.14 34.77 108.14 76.01 42.14 117.36 108.47 133.58 108.47 75.85 17.01 18.39 108.14"/>
  <path class="st0" d="M196.71,74.24c12.83-2.37,22.55-13.6,22.55-27.11h0c0-15.23-12.35-27.58-27.58-27.58h-50.91v89.43h13.84v-32.65h27.47l24.53,32.11h16.54l-26.44-34.2ZM154.17,65.6V31.66h34.7c9.37,0,16.97,7.6,16.97,16.97h0c0,9.37-7.6,16.97-16.97,16.97h-34.7Z"/>
  <path class="st0" d="M304.92,87.31c-.34.33-.68.66-1.04.98-6.09,6.31-14.6,10.24-24.01,10.24-.42,0-.85-.02-1.27-.03-.42.02-.84.03-1.27.03-15.11,0-27.88-10.1-32.09-23.99-1.05-3.14-1.62-6.48-1.62-9.95s.54-6.67,1.55-9.74c4.13-14.02,16.96-24.25,32.16-24.25.42,0,.85.02,1.27.03.42-.02.84-.03,1.27-.03,9.6,0,18.25,4.08,24.36,10.62.26.24.52.49.77.74l8.39-8.43c-8.38-9.1-20.39-14.81-33.74-14.81-.58,0-1.15.02-1.73.04-.57-.02-1.15-.04-1.73-.04-25.32,0-45.84,20.52-45.84,45.84s20.52,45.84,45.84,45.84c.58,0,1.15-.02,1.73-.04.57.02,1.15.04,1.73.04,13.38,0,25.43-5.73,33.81-14.88l-8.54-8.21Z"/>
  <rect class="st1" x="64.63" y="83.62" width="9.55" height="10.22" rx="2.3" ry="2.3"/>
  <rect class="st1" x="77.81" y="83.62" width="9.55" height="10.22" rx="2.3" ry="2.3"/>
  <rect class="st1" x="64.63" y="97.08" width="9.55" height="10.22" rx="2.3" ry="2.3"/>
  <rect class="st1" x="77.81" y="97.08" width="9.55" height="10.22" rx="2.3" ry="2.3"/>
  <rect class="st1" x="301.79" y="63.5" width="91.68" height="1.95" transform="translate(412.1 -283.15) rotate(90)"/>
</svg>