<?xml version="1.0" encoding="UTF-8"?>
<svg id="Layer_1" xmlns="http://www.w3.org/2000/svg" version="1.1" viewBox="0 0 500 189.02">
  <!-- Generator: Adobe Illustrator 30.0.0, SVG Export Plug-In . SVG Version: 2.1.1 Build 123)  -->
  <defs>
    <style>
      .st0 {
        fill: #001d44;
      }

      .st1 {
        fill: #00388e;
      }
    </style>
  </defs>
  <polygon class="st0" points="33.9 159.86 57.96 159.86 118.54 62.92 179.28 160.34 203.1 160.34 118.3 26 33.9 159.86"/>
  <path class="st0" d="M295.83,110.07c18.84-3.48,33.12-19.98,33.12-39.83h0c0-22.37-18.14-40.51-40.51-40.51h-74.77v131.36h20.33v-47.96h40.35l36.03,47.16h24.3l-38.83-50.23h-.02ZM233.35,97.38v-49.86h50.97c13.77,0,24.93,11.16,24.93,24.93h0c0,13.77-11.16,24.93-24.93,24.93h-50.97Z"/>
  <path class="st0" d="M454.78,129.26c-.5.49-1,.97-1.52,1.43-8.95,9.27-21.44,15.03-35.26,15.03-.62,0-1.24-.02-1.86-.05-.62.02-1.24.05-1.86.05-22.19,0-40.95-14.83-47.14-35.23-1.54-4.61-2.38-9.51-2.38-14.61s.8-9.79,2.28-14.31c6.07-20.59,24.92-35.61,47.24-35.61.62,0,1.24.02,1.86.05.62-.02,1.24-.05,1.86-.05,14.1,0,26.8,6,35.79,15.59.38.35.76.72,1.13,1.08l12.32-12.38c-12.3-13.37-29.95-21.75-49.55-21.75-.85,0-1.7.03-2.54.06-.84-.03-1.69-.06-2.54-.06-37.19,0-67.33,30.14-67.33,67.33s30.14,67.33,67.33,67.33c.85,0,1.7-.03,2.54-.06.84.03,1.69.06,2.54.06,19.66,0,37.35-8.42,49.66-21.86l-12.55-12.06-.02.02Z"/>
  <rect class="st1" x="101.83" y="123.83" width="14.03" height="15.01" rx=".52" ry=".52"/>
  <rect class="st1" x="101.83" y="143.62" width="14.03" height="15.01" rx=".52" ry=".52"/>
  <rect class="st1" x="121.31" y="123.83" width="14.03" height="15.01" rx=".52" ry=".52"/>
  <rect class="st1" x="121.31" y="143.62" width="14.03" height="15.01" rx=".52" ry=".52"/>
</svg>